<svg xmlns="http://www.w3.org/2000/svg" width="95.44444274902344" height="93" style=""><rect id="backgroundrect" width="100%" height="100%" x="0" y="0" fill="none" stroke="none" class="" style=""/><title>dotConnect_O</title><g class="currentLayer" style=""><title>Layer 1</title><rect width="95.06349182128906" height="93.9100570678711" fill="#fff" opacity="0" id="svg_1" class="" y="-0.301588237285614" x="1.1920928955078125e-7"/><path d="M95.30203284829715,46.67111972296063 a47.67261176848412,46.894833530545235 0 1 1 -47.676604835414885,-46.89825787112713 A47.67465949511528,46.896847848534584 0 0 1 95.30203284829715,46.67111972296063 z" fill="#e8e8e8" fill-rule="evenodd" id="svg_10" class=""/><path d="M34.749936052703845,69.17426883745193 a21.4922,21.4922 0 1 1 0,-42.9844 h24.9785 a21.4962,21.4962 0 0 1 0,42.9922 l-24.9785,-0.007800000000000051 m24.4072,-7.5762 a13.9033,13.9033 0 1 0 0,-27.8066 h-23.86 a13.9033,13.9033 0 0 0 0,27.8066 h23.86 " fill="#e42521" id="svg_11" class=""/></g></svg>